<svg width="94" height="94" viewBox="0 0 94 94" fill="none" xmlns="http://www.w3.org/2000/svg">
<path d="M28.0254 0.9375C13.1565 0.9375 0.9375 13.1401 0.9375 28.0254V65.9746C0.9375 80.8435 13.1401 93.0625 28.0254 93.0625H65.9746C80.8435 93.0625 93.0625 80.8599 93.0625 65.9746V28.0254C93.0625 13.1565 80.8599 0.9375 65.9746 0.9375H28.0254ZM28.0254 9.3125H65.9746C76.3289 9.3125 84.6875 17.6711 84.6875 28.0254V65.9746C84.6875 76.3289 76.3289 84.6875 65.9746 84.6875H28.0254C17.6711 84.6875 9.3125 76.3289 9.3125 65.9746V28.0254C9.3125 17.6711 17.6711 9.3125 28.0254 9.3125ZM71.7324 18.4727C69.6223 18.4727 67.9375 20.1575 67.9375 22.2676C67.9375 24.3777 69.6223 26.0625 71.7324 26.0625C73.8425 26.0625 75.5273 24.3777 75.5273 22.2676C75.5273 20.1575 73.8425 18.4727 71.7324 18.4727ZM47 21.875C33.178 21.875 21.875 33.178 21.875 47C21.875 60.822 33.178 72.125 47 72.125C60.822 72.125 72.125 60.822 72.125 47C72.125 33.178 60.822 21.875 47 21.875ZM47 30.25C56.3074 30.25 63.75 37.6926 63.75 47C63.75 56.3074 56.3074 63.75 47 63.75C37.6926 63.75 30.25 56.3074 30.25 47C30.25 37.6926 37.6926 30.25 47 30.25Z" fill="#A90E44"/>
</svg>
