<svg width="135" height="59" viewBox="0 0 135 59" fill="none" xmlns="http://www.w3.org/2000/svg">
<path d="M82.793 0.182983C79.0521 0.182983 75.3937 0.924561 72.1802 2.177C70.9277 2.65491 70.5817 3.14929 70.5817 4.12158V56.823C70.5817 57.8447 71.3727 58.6357 72.3615 58.7346H118.389C127.568 58.7346 135 51.3848 135 42.2057C135 33.0431 127.568 25.5944 118.389 25.5944C116.115 25.5944 113.956 26.0558 111.978 26.8962C110.66 11.9329 98.1024 0.182984 82.793 0.182983ZM67.1869 4.07214C66.7419 4.07214 66.3464 4.23694 66.0333 4.50061C65.6213 4.8302 65.3577 5.34107 65.3577 5.90137V6.08264L64.5996 43.3098L64.9786 50.1818L65.3577 56.8889C65.3741 57.8777 66.1816 58.7017 67.1869 58.7017C68.1757 58.7017 68.9996 57.8777 69.0161 56.8724L69.8236 43.3098L69.0161 5.90137C68.9996 5.24219 68.6371 4.66541 68.1097 4.33582C67.8296 4.17102 67.5165 4.07214 67.1869 4.07214ZM61.5179 7.30212C61.1719 7.30212 60.8588 7.401 60.5951 7.58228C60.1172 7.8789 59.8041 8.40625 59.8041 9.01599V9.3291L59.1614 43.2933C59.1614 43.3098 59.8041 57.0867 59.8041 57.0867V57.1361C59.8206 57.5316 59.9689 57.8777 60.1996 58.1578C60.5292 58.5369 60.9906 58.7841 61.5179 58.7841C61.9794 58.7841 62.4078 58.5863 62.721 58.2732C63.0176 57.9601 63.2153 57.5481 63.2318 57.0702L63.2977 55.7024L63.9569 43.2933L63.2318 8.99951C63.2153 8.42273 62.9022 7.89538 62.4573 7.59875C62.1771 7.401 61.864 7.30212 61.5179 7.30212ZM44.5605 11.2407C43.819 11.2407 43.2092 11.834 43.1927 12.592L42.3358 43.2933L43.1927 57.3833C43.2092 58.1414 43.819 58.7346 44.5605 58.7346C45.3021 58.7346 45.8954 58.1414 45.9283 57.3833L46.8842 43.2933L45.9283 12.592C45.8954 11.834 45.3021 11.2407 44.5605 11.2407ZM50.1636 11.9164C49.3561 11.9164 48.6969 12.5591 48.6804 13.3831L47.8894 43.2933L48.6804 57.2515C48.6969 58.0754 49.3561 58.7181 50.1636 58.7181C50.9711 58.7181 51.6138 58.0754 51.6467 57.2515L52.5201 43.2933L51.6467 13.3831C51.6302 12.5591 50.9711 11.9164 50.1636 11.9164ZM38.9905 12.3613C38.3148 12.3613 37.771 12.9051 37.738 13.5973L36.8152 43.2933L37.738 57.4822C37.771 58.1743 38.3148 58.7181 38.9905 58.7181C39.6661 58.7181 40.21 58.1743 40.2429 57.4657L41.2811 43.2933L40.2429 13.5973C40.21 12.9051 39.6661 12.3613 38.9905 12.3613ZM55.816 12.8887C54.9426 12.8887 54.234 13.5808 54.2175 14.4707L53.5089 43.2933L54.2175 57.1691C54.234 58.0425 54.9261 58.7511 55.816 58.7511C56.6895 58.7511 57.3981 58.0425 57.4146 57.1526L58.222 43.2933L57.4146 14.4707C57.3981 13.5808 56.6895 12.8887 55.816 12.8887ZM33.3875 14.8333C32.7777 14.8333 32.2668 15.3276 32.2504 15.9539L31.2616 43.3593L32.2504 57.6964C32.2668 58.3226 32.7777 58.817 33.3875 58.817C33.9972 58.817 34.4916 58.3226 34.5245 57.6964L35.6451 43.3757L34.5245 15.9539C34.4916 15.3276 33.9972 14.8333 33.3875 14.8333ZM27.9987 19.9749C27.4548 19.9749 26.9934 20.4198 26.9769 20.9801L25.9222 43.2933L26.9769 57.6964C27.0099 58.2567 27.4548 58.7181 27.9987 58.7181C28.5425 58.7181 28.9874 58.2567 29.0204 57.6964L30.2069 43.2933L29.0204 20.9801C28.9874 20.4198 28.5425 19.9749 27.9987 19.9749ZM17.1716 27.7202C16.7596 27.7202 16.4136 28.0498 16.3806 28.5112L15.1941 43.2769L16.3806 57.5811C16.4136 58.026 16.7596 58.3556 17.1716 58.3556C17.5836 58.3556 17.9297 58.026 17.9626 57.5811L19.314 43.2769L17.9626 28.4948C17.9297 28.0498 17.5836 27.7202 17.1716 27.7202ZM11.8323 28.2311C11.4697 28.2311 11.1896 28.5112 11.1566 28.8903L9.8877 43.2769L11.1566 57.1361C11.1896 57.5151 11.4697 57.7953 11.8323 57.7953C12.1783 57.7953 12.4585 57.5151 12.5079 57.1361L13.9252 43.2769L12.5079 28.8903C12.4585 28.5112 12.1783 28.2311 11.8323 28.2311ZM22.5604 28.676C22.0825 28.676 21.687 29.0551 21.6541 29.5659L20.5334 43.2769L21.6541 57.6964C21.687 58.2073 22.0825 58.5863 22.5604 58.5863C23.0383 58.5863 23.4338 58.2073 23.4668 57.6964L24.7357 43.2769L23.4668 29.5659C23.4338 29.0551 23.0383 28.676 22.5604 28.676ZM6.52588 30.6041C6.22925 30.6041 5.99854 30.8348 5.9491 31.1479L4.63074 43.2769L5.9491 55.1256C5.99854 55.4552 6.22925 55.6859 6.52588 55.6859C6.80603 55.6859 7.03674 55.4552 7.08618 55.1421L8.58582 43.2769L7.08618 31.1479C7.03674 30.8348 6.80603 30.6041 6.52588 30.6041ZM1.53259 35.2513C1.25244 35.2513 1.02173 35.4656 0.98877 35.7787L0 43.2769L0.98877 50.6432C1.02173 50.9563 1.25244 51.1705 1.53259 51.1705C1.79626 51.1705 2.02698 50.9563 2.05994 50.6597L3.22998 43.2769L2.05994 35.7787C2.02698 35.4656 1.79626 35.2513 1.53259 35.2513Z" fill="#A90E44"/>
</svg>
