<svg width="110" height="100" viewBox="0 0 110 100" fill="none" xmlns="http://www.w3.org/2000/svg">
<path d="M101.169 0.85854C99.7627 0.924458 98.4378 1.33644 97.26 1.79787H97.2437C96.0496 2.27577 90.3736 4.68178 81.7532 8.32375C73.1328 11.9822 61.9444 16.7283 50.8377 21.4414C28.657 30.8512 6.85256 40.1127 6.85256 40.1127L7.11428 40.0138C7.11428 40.0138 5.6094 40.5082 4.03909 41.5958C3.23757 42.1232 2.35427 42.8483 1.58547 43.9854C0.816674 45.1225 0.19509 46.8693 0.424096 48.6655C0.800318 51.7142 2.76321 53.5435 4.16994 54.5487C5.59304 55.5705 6.95071 56.0484 6.95071 56.0484H6.98342L27.4302 62.9862C28.3462 65.9525 33.6624 83.5526 34.9383 87.6066C35.6907 90.0291 36.4268 91.5452 37.3428 92.6987C37.7844 93.292 38.3079 93.7864 38.9295 94.1819C39.1748 94.3302 39.4365 94.4456 39.6983 94.5444C39.7801 94.5939 39.8618 94.6104 39.96 94.6268L39.7473 94.5774C39.8128 94.5939 39.8618 94.6433 39.9109 94.6598C40.0745 94.7092 40.189 94.7257 40.4016 94.7587C43.6404 95.7475 46.2412 93.7205 46.2412 93.7205L46.3885 93.6051L58.4602 82.5309L78.6944 98.1699L79.1524 98.3677C83.3726 100.23 87.6419 99.1917 89.8992 97.3624C92.1729 95.5167 93.0562 93.1602 93.0562 93.1602L93.2034 92.7811L108.841 12.0811C109.283 10.0871 109.397 8.22487 108.907 6.41213C108.416 4.59939 107.156 2.902 105.635 1.99562C104.097 1.07277 102.576 0.792622 101.169 0.85854ZM100.744 9.51027C100.728 9.77394 100.777 9.74099 100.662 10.2518V10.3013L85.1719 90.1609C85.1065 90.2763 84.992 90.5235 84.6812 90.7706C84.354 91.0343 84.0923 91.1991 82.7346 90.6553L57.9859 71.5391L43.0352 85.2665L46.1758 65.0626C46.1758 65.0626 84.9429 28.6594 86.6114 27.0939C88.2798 25.5283 87.7237 25.1987 87.7237 25.1987C87.8382 23.2871 85.2046 24.6384 85.2046 24.6384L34.2185 56.4603L34.2022 56.3779L9.76418 48.0888V48.0723C9.74782 48.0723 9.71511 48.0558 9.69875 48.0558C9.71511 48.0558 9.82961 48.0064 9.82961 48.0064L9.96047 47.9404L10.0913 47.891C10.0913 47.891 31.9121 38.6295 54.0928 29.2197C65.1995 24.5066 76.388 19.7605 84.992 16.1021C93.596 12.4601 99.959 9.79042 100.319 9.64211C100.662 9.51027 100.499 9.51027 100.744 9.51027Z" fill="#A90E44"/>
</svg>
