<svg width="117" height="99" viewBox="0 0 117 99" fill="none" xmlns="http://www.w3.org/2000/svg">
<path d="M58.5 0C39.663 0 15.2139 4.71973 15.2139 4.71973L15.1523 4.79004C6.57298 6.16214 0 13.5343 0 22.5V49.5V49.5088V76.5V76.5088C0.00837204 80.7907 1.54291 84.9294 4.32809 88.1817C7.11327 91.434 10.9666 93.587 15.1963 94.2539L15.2139 94.2803C15.2139 94.2803 39.663 99.0088 58.5 99.0088C77.337 99.0088 101.786 94.2803 101.786 94.2803L101.795 94.2715C106.029 93.6059 109.887 91.4513 112.674 88.1951C115.462 84.939 116.995 80.795 117 76.5088V76.5V49.5088V49.5V22.5C116.994 18.2166 115.46 14.0758 112.675 10.8216C109.889 7.56748 106.035 5.41328 101.804 4.74609L101.786 4.71973C101.786 4.71973 77.337 0 58.5 0ZM45 28.793L81 49.5L45 70.207V28.793Z" fill="#A90E44"/>
</svg>
